<svg xmlns="http://www.w3.org/2000/svg" viewBox="0 0 410 404" width="64" height="64" fill="none">
  <defs>
    <linearGradient id="g" x1="255.39" x2="136.2" y1="8.21" y2="403.89" gradientUnits="userSpaceOnUse">
      <stop stop-color="#41D1FF"/>
      <stop offset="1" stop-color="#BD34FE"/>
    </linearGradient>
    <linearGradient id="g2" x1="150.25" x2="236.9" y1="163.61" y2="336.64" gradientUnits="userSpaceOnUse">
      <stop stop-color="#FFEA83"/>
      <stop offset=".08" stop-color="#FFDD35"/>
      <stop offset="1" stop-color="#FFA800"/>
    </linearGradient>
  </defs>
  <path fill="url(#g)" d="M399.64 59.52L215.65 388.76c-5.74 10.23-20.72 10.25-26.48.03L9.52 59.5c-6.13-10.93 3.74-23.9 15.5-20.9l176.23 44.67a14 14 0 0 0 6.74 0l175.63-44.65c11.74-3 21.64 9.91 15.54 20.84Z"/>
  <path fill="url(#g2)" d="M292.42 80.4L186.6 108.9c-2.34.61-4 2.73-4 5.16v160.52c0 4.1 4.92 6.17 7.78 3.3l29.13-29.13a5 5 0 0 1 6.77-.23l56.9 49.73c3.3 2.88 8.48.64 8.48-3.78V85.58c0-3.36-3.22-5.85-6.25-5.18Z"/>
</svg>

